<?xml version="1.0" encoding="UTF-8" standalone="no"?>
<!-- Created with Inkscape (http://www.inkscape.org/) -->

<svg
   version="1.1"
   id="svg1"
   width="960"
   height="276.67188"
   viewBox="0 0 960 276.67188"
   sodipodi:docname="xidian-white.svg"
   inkscape:version="1.3 (0e150ed6c4, 2023-07-21)"
   inkscape:export-filename="xidian-white-plain.svg"
   inkscape:export-xdpi="96"
   inkscape:export-ydpi="96"
   xmlns:inkscape="http://www.inkscape.org/namespaces/inkscape"
   xmlns:sodipodi="http://sodipodi.sourceforge.net/DTD/sodipodi-0.dtd"
   xmlns="http://www.w3.org/2000/svg"
   xmlns:svg="http://www.w3.org/2000/svg">
  <defs
     id="defs1" />
  <sodipodi:namedview
     id="namedview1"
     pagecolor="#ffffff"
     bordercolor="#000000"
     borderopacity="0.25"
     inkscape:showpageshadow="2"
     inkscape:pageopacity="0.0"
     inkscape:pagecheckerboard="true"
     inkscape:deskcolor="#d1d1d1"
     inkscape:zoom="1.4142136"
     inkscape:cx="342.59323"
     inkscape:cy="152.38151"
     inkscape:window-width="2560"
     inkscape:window-height="1369"
     inkscape:window-x="2552"
     inkscape:window-y="-8"
     inkscape:window-maximized="1"
     inkscape:current-layer="g1" />
  <g
     id="g1"
     inkscape:groupmode="layer"
     inkscape:label="1">
    <g
       id="g2"
       transform="translate(144.2041,-198.03143)">
      <path
         id="path2"
         d="M 38.99707,338 V 166.49609 h 3.86816 V 338 Z"
         style="fill:#33b76d;fill-opacity:1;fill-rule:nonzero;stroke:none"
         transform="matrix(1.3333333,0,0,-1.3333333,0,672.66145)" />
      <path
         id="path3"
         d="M 6.48682,311.11816 -41.75684,281.40576 -90,311.11816 V 295.71143 L -54.30908,273.73828 -90,251.12305 v -22.25098 c 0.05273,-7.52344 1.70166,-14.00684 4.39209,-19.35644 2.45996,-4.89063 6.58301,-9.00586 11.7168,-11.85938 5.13525,-2.85059 11.32617,-4.27832 18.57177,-4.27832 h 27.12549 c 7.24561,0 13.43653,1.42773 18.57227,4.27832 5.1333,2.85352 9.25586,6.96875 11.71679,11.85938 2.68995,5.3496 4.33936,11.833 4.39161,19.35644 v 22.25098 l -35.69141,22.61523 35.69141,21.97315 v 15.40673 M -6.66406,244.05469 v -15.27832 c 0,-7.06739 -1.83252,-12.54492 -5.49707,-16.42676 -3.66602,-3.88379 -8.83301,-5.8291 -15.5044,-5.8291 h -28.18213 c -6.67187,0 -11.83886,1.94531 -15.5039,5.8291 -3.66504,3.88184 -5.49756,9.35937 -5.49756,16.42676 v 15.27832 l 35.09228,22.06006 z"
         style="fill:#ffffff;fill-opacity:1;fill-rule:nonzero;stroke:none"
         transform="matrix(1.3333333,0,0,-1.3333333,0,672.66145)" />
      <path
         id="path4"
         d="m 252.15039,292.90234 h 20.48242 v 18.21534 H 252.15039 V 292.90234 M 161.0957,228.54492 h 66.37989 v 15.29981 H 161.0957 v -15.29981 m 80.38379,33.85742 h 12.39258 v -67.30273 h 18.76074 v 81.59131 h -29.43164 l -1.72168,-14.28858 M 136.65332,276.93848 116.08545,249.55273 95.51758,276.93848 H 75.37549 l 30.59619,-40.85254 -30.59619,-40.73828 h 20.3125 l 20.39746,27.23535 20.39795,-27.23535 h 20.3125 l -30.59668,40.73828 30.59668,40.85254 h -20.14258 m 450.11523,-5.92725 c -4.82031,4.93311 -12.50878,7.40137 -23.06347,7.40137 -5.85352,0 -11.36328,-0.94776 -16.52442,-2.83985 -5.16503,-1.89599 -9.70019,-4.3916 -13.59961,-7.49072 l -0.85937,8.60889 h -17.21289 v -81.59131 h 18.76074 v 59.73096 c 2.75488,2.75097 6.16699,4.9873 10.24121,6.70898 4.07422,1.72168 8.2334,2.58447 12.48145,2.58447 6.99511,0 11.8164,-1.26513 14.45508,-3.78759 2.63867,-2.52295 3.96191,-6.94141 3.96191,-13.25147 V 195.09961 H 594 v 52.84375 c 0,10.44287 -2.41016,18.13086 -7.23145,23.06787 m -93.89648,0 c -6.13965,4.93311 -15.29004,7.40137 -27.4541,7.40137 -5.85449,0 -11.42188,-0.46045 -16.69922,-1.37744 -5.27734,-0.9209 -9.87012,-2.12403 -13.77051,-3.61377 v -13.94385 c 8.37696,2.8667 17.38379,4.30225 27.02539,4.30225 5.9668,0 10.5586,-0.51856 13.77051,-1.55127 3.21094,-1.03321 5.4209,-2.66993 6.62793,-4.90625 1.20313,-2.23633 1.80664,-5.36231 1.80664,-9.37891 v -3.61328 h -26.16308 c -10.90235,0 -19.08204,-2.3252 -24.5293,-6.97168 -5.45215,-4.65137 -8.17578,-10.98828 -8.17578,-19.02051 0,-8.03223 2.75097,-14.20312 8.26074,-18.50586 5.50976,-4.30273 12.39258,-6.4541 20.65723,-6.4541 7.11523,0 13.13867,0.83203 18.07617,2.49609 4.93261,1.66309 9.11914,4.15918 12.5625,7.48633 l 1.20703,-8.26074 h 16.00683 v 52.5 c 0,10.67041 -3.07226,18.47461 -9.20898,23.41162 m -8.69336,-53.70654 c -2.75488,-3.32715 -6.25293,-5.91211 -10.50098,-7.7461 -4.24804,-1.83789 -9.06543,-2.75488 -14.458,-2.75488 -5.50977,0 -9.63868,0.94434 -12.39258,2.83984 -2.75488,1.89258 -4.13281,4.90625 -4.13281,9.03809 0,4.47266 1.23046,7.74609 3.69921,9.8125 2.46778,2.06543 6.45704,3.09863 11.9668,3.09863 h 25.81836 v -14.28808 m -135.12012,54.05078 c -3.55957,2.40625 -7.29004,4.18652 -11.18945,5.33545 -3.90039,1.14502 -8.26074,1.72168 -13.07715,1.72168 -7.57617,0 -14.29297,-1.75293 -20.14258,-5.25049 -5.85449,-3.50147 -10.44238,-8.63574 -13.7705,-15.40625 -3.32715,-6.77148 -4.99121,-14.91895 -4.99121,-24.44141 0,-14.11816 3.23925,-24.30468 9.72363,-30.55761 6.48437,-6.25196 15.63476,-9.37891 27.45898,-9.37891 5.84961,0 10.95703,0.77832 15.31739,2.32227 4.36035,1.54687 8.43457,4.04687 12.22168,7.49023 l 1.2041,-8.09082 h 16.00976 v 116.01807 h -18.76465 v -39.76221 m 0,-55.25391 c -5.62207,-5.74218 -12.62109,-8.60937 -20.99804,-8.60937 -8.26367,0 -14.20313,1.89258 -17.81641,5.68066 -3.61426,3.7832 -5.4209,10.44238 -5.4209,19.96778 0,10.09863 2.00781,17.78613 6.02442,23.06347 4.01562,5.27735 9.98242,7.91992 17.90234,7.91992 8.14746,0 14.91504,-2.41015 20.30859,-7.22754 v -40.79492 m 42.51465,76.80078 h 20.4834 v 18.21534 h -20.4834 v -18.21534 m -10.6709,-30.5 h 12.39258 v -67.30273 h 18.76172 v 81.59131 h -29.43262 z"
         style="fill:#ffffff;fill-opacity:1;fill-rule:nonzero;stroke:none"
         transform="matrix(1.3333333,0,0,-1.3333333,0,672.66145)" />
    </g>
  </g>
</svg>
